<?xml version="1.0" standalone="no"?>
<!DOCTYPE svg>
<svg version="1.0" xmlns="http://www.w3.org/2000/svg"
 width="60px" height="40px" viewBox="0 0 835.000000 562.000000"
 preserveAspectRatio="xMidYMid meet" fill="#50E3C2">
  <g transform="translate(0.000000,562.000000) scale(0.100000,-0.100000)" stroke="none">
  <path d="M934 5595 c-317 -118 -259 -744 151 -1637 37 -81 87 -179 111 -219
  24 -39 44 -75 44 -80 0 -5 -29 -59 -65 -122 -62 -108 -134 -267 -169 -372
  l-16 -51 -208 0 c-228 0 -325 -14 -504 -74 -93 -31 -251 -100 -244 -107 2 -2
  55 5 117 16 218 38 400 54 601 55 108 1 198 -1 201 -4 2 -3 -5 -55 -16 -116
  l-20 -111 -111 -11 c-168 -18 -293 -53 -431 -122 -107 -53 -263 -156 -252
  -166 2 -3 34 9 70 25 204 91 563 191 689 191 l23 0 2 -162 c3 -413 118 -779
  359 -1143 184 -278 462 -550 779 -762 797 -534 1912 -741 2945 -547 1355 255
  2350 1123 2505 2185 8 62 15 175 15 268 l0 162 48 -6 c167 -23 466 -111 629
  -185 37 -17 68 -28 70 -26 9 8 -137 108 -227 155 -146 76 -279 115 -471 136
  l-57 6 -16 87 c-8 48 -18 102 -22 120 l-6 32 105 0 c174 0 393 -22 737 -75 53
  -8 -91 59 -218 102 -173 58 -284 76 -481 78 l-174 3 -33 93 c-43 121 -120 279
  -195 401 l-59 97 29 49 c105 178 283 612 362 882 125 428 123 736 -7 880 -64
  71 -102 85 -224 84 -86 0 -120 -5 -190 -28 -287 -94 -686 -358 -1117 -738 -67
  -60 -125 -108 -130 -108 -4 0 -56 20 -114 44 -603 250 -1360 345 -2064 260
  -351 -42 -779 -155 -1074 -283 -52 -23 -98 -41 -103 -41 -4 0 -38 28 -75 63
  -397 371 -896 708 -1188 803 -101 32 -249 42 -311 19z m2533 -3602 c209 -99
  313 -115 439 -68 81 30 149 69 229 128 l59 45 63 -58 c124 -114 266 -166 428
  -157 147 8 253 57 377 175 46 44 59 51 64 38 10 -25 -4 -67 -35 -106 -41 -53
  -40 -49 -51 -181 -21 -246 -81 -477 -175 -675 -58 -123 -171 -304 -189 -304
  -6 0 -29 12 -51 25 -22 14 -43 25 -47 25 -5 0 -8 -38 -8 -84 l0 -85 -43 -35
  c-142 -117 -334 -138 -502 -55 -33 16 -79 46 -101 67 -41 37 -41 39 -49 124
  l-7 88 -44 -26 c-24 -14 -48 -23 -53 -19 -6 3 -35 43 -65 89 -141 212 -245
  512 -290 844 -9 62 -16 114 -16 116 0 3 -29 27 -64 56 -68 53 -106 103 -106
  138 0 19 6 18 73 -20 39 -23 113 -61 164 -85z"/>
  </g>
</svg>
