<?xml version="1.0" standalone="no"?>
<!DOCTYPE svg>
<svg version="1.0" xmlns="http://www.w3.org/2000/svg"
 width="40px" height="37px" viewBox="0 0 423.000000 387.000000"
 preserveAspectRatio="xMidYMid meet">
  <g transform="translate(0.000000,387.000000) scale(0.100000,-0.100000)"
  fill="#50E3C2" stroke="none">
  <path d="M313 3777 c-38 -61 -89 -208 -112 -328 -54 -282 -51 -627 10 -1059
  l20 -145 -37 -75 c-44 -90 -105 -272 -130 -390 -27 -121 -27 -465 0 -560 35
  -126 96 -276 128 -314 4 -6 21 -29 36 -52 42 -64 221 -226 324 -294 114 -75
  443 -239 633 -314 371 -146 662 -202 1002 -192 294 8 577 77 933 227 176 74
  452 215 556 285 124 82 300 254 342 336 19 34 40 74 47 88 56 101 99 240 118
  383 27 196 -42 542 -158 794 l-37 81 20 149 c28 204 31 234 42 432 20 370 -29
  721 -125 911 -44 86 -36 83 -155 56 -338 -78 -603 -251 -825 -541 -133 -174
  -176 -223 -205 -235 -24 -10 -49 -10 -128 1 -138 20 -867 20 -1010 0 -88 -12
  -106 -12 -129 0 -26 14 -62 56 -204 239 -223 287 -476 455 -804 533 -127 31
  -122 31 -152 -16z"/>
  </g>
</svg>
